Coordinates
version=1
nRows=18
nColumns=22
inDegrees=yes

Units are S.I. units (second, meters, Newtons, ...)
If the header above contains a line with 'inDegrees', this indicates whether rotational values are in degrees (yes) or radians (no).

endheader
time	pelvis_tilt	pelvis_list	pelvis_rotation	pelvis_tx	pelvis_ty	pelvis_tz	hip_flexion_r	hip_adduction_r	hip_rotation_r	knee_angle_r	ankle_angle_r	subtalar_angle_r	hip_flexion_l	hip_adduction_l	hip_rotation_l	knee_angle_l	ankle_angle_l	subtalar_angle_l	lumbar_extension	lumbar_bending	lumbar_rotation
      0.01000000	      4.74252594	     -4.22023311	      9.64600167	     -1.35152094	      0.94603476	     -0.76491289	     -4.38396196	      5.40253570	    -13.47171785	    -13.21508158	     13.87735625	      1.67724582	      2.02911790	     -3.50664273	     -6.92974480	    -24.40515284	     27.19481482	    -15.79049528	    -11.97047400	      4.76729354	     -9.43111114
      0.02000000	      4.68116065	     -4.05156943	      9.64529746	     -1.35074445	      0.94569456	     -0.76586912	     -3.84129181	      5.04865301	    -13.45606278	    -14.32055927	     14.14731122	      1.68533896	      1.98381876	     -3.25109483	     -6.89481189	    -24.36583393	     27.20008454	    -15.71398856	    -12.03733419	      4.55890298	     -9.52217946
      0.03000000	      4.59739352	     -3.86068999	      9.63087324	     -1.34987603	      0.94526567	     -0.76697639	     -3.13129226	      4.62583383	    -13.39600341	    -15.72393062	     14.39633331	      1.69144924	      1.94739601	     -2.95996395	     -6.86932218	    -24.32653343	     27.20406365	    -15.61301339	    -12.12010101	      4.32559778	     -9.62838917
      0.04000000	      4.47712149	     -3.67430123	      9.59583333	     -1.34897910	      0.94472422	     -0.76815985	     -2.23291713	      4.16687791	    -13.27566522	    -17.41160141	     14.58332742	      1.70669197	      1.95254990	     -2.66665328	     -6.86707834	    -24.30582358	     27.21343788	    -15.47901383	    -12.20058903	      4.09623144	     -9.72705217
      0.05000000	      4.38064869	     -3.45604752	      9.50933073	     -1.34805302	      0.94420106	     -0.76932794	     -1.23894079	      3.65601504	    -13.01982599	    -19.33690037	     14.68078379	      1.74519192	      1.90656012	     -2.34731838	     -6.94073905	    -24.26785166	     27.19368407	    -15.33472118	    -12.35452257	      3.83123612	     -9.81512657
      0.06000000	      4.28436193	     -3.23422524	      9.37915136	     -1.34714609	      0.94366120	     -0.77044950	     -0.12365935	      3.12920631	    -12.64059139	    -21.47633104	     14.64425460	      1.81580540	      1.85233535	     -2.02834351	     -7.07050816	    -24.22533003	     27.15824989	    -15.18860137	    -12.54644899	      3.56355560	     -9.89440631
      0.07000000	      4.21809758	     -3.00108453	      9.19562066	     -1.34624961	      0.94318576	     -0.77148506	      1.05753533	      2.59947180	    -12.10686744	    -23.77717628	     14.44120567	      1.89562353	      1.73627979	     -1.70105369	     -7.24222930	    -24.13930780	     27.07526693	    -15.07308380	    -12.80768500	      3.28673422	     -9.95597976
      0.08000000	      4.09097007	     -2.82548972	      9.01110282	     -1.34543974	      0.94258271	     -0.77246876	      2.41774283	      2.12649384	    -11.52645409	    -26.23323217	     14.07823737	      2.08837983	      1.73928074	     -1.44089107	     -7.46018076	    -24.12716056	     27.05765295	    -14.95507870	    -13.01982461	      3.07694301	    -10.04938340
      0.09000000	      4.03721420	     -2.63689754	      8.77479311	     -1.34456823	      0.94217330	     -0.77332772	      3.74301322	      1.69036095	    -10.78066072	    -28.72937925	     13.52512386	      2.23188117	      1.60411555	     -1.17060718	     -7.68959176	    -24.01943773	     26.94788549	    -14.89638161	    -13.33489794	      2.85929627	    -10.12415901
      0.10000000	      3.92381584	     -2.51174377	      8.55791810	     -1.34370304	      0.94166322	     -0.77413642	      5.19803867	      1.34014276	    -10.02943271	    -31.27375077	     12.85469879	      2.52738167	      1.58436236	     -0.97643788	     -7.95942086	    -23.98630843	     26.94570694	    -14.85657612	    -13.58242447	      2.71678575	    -10.26763642
      0.11000000	      3.85971442	     -2.40487648	      8.32412871	     -1.34270725	      0.94131732	     -0.77484814	      6.60626979	      1.07160552	     -9.19642483	    -33.75606655	     12.05708055	      2.77373772	      1.47069261	     -0.80710914	     -8.22611269	    -23.88470305	     26.90696745	    -14.84242550	    -13.88213068	      2.60142981	    -10.41443055
      0.12000000	      3.81312907	     -2.33466648	      8.09108312	     -1.34155484	      0.94107649	     -0.77546122	      7.98920857	      0.90491822	     -8.32569933	    -36.13374184	     11.20629296	      2.97036670	      1.32180431	     -0.68734798	     -8.51046535	    -23.75627906	     26.86504388	    -14.82801920	    -14.18623107	      2.52982951	    -10.60042142
      0.13000000	      3.75502640	     -2.31850046	      7.88732583	     -1.34028132	      0.94087286	     -0.77603314	      9.37697343	      0.84395597	     -7.49266395	    -38.38040757	     10.36840047	      3.19934327	      1.19198251	     -0.62934909	     -8.77516805	    -23.63031484	     26.88349994	    -14.77139907	    -14.46785024	      2.52697649	    -10.80050089
      0.14000000	      3.72073700	     -2.34444337	      7.69760332	     -1.33876362	      0.94080585	     -0.77650869	     10.69130183	      0.89367398	     -6.67682949	    -40.41329697	      9.60050413	      3.35339422	      1.00662188	     -0.63167480	     -9.05944279	    -23.45663845	     26.89168181	    -14.66482707	    -14.74553768	      2.56933684	    -11.03345529
      0.15000000	      3.67308260	     -2.42162338	      7.53674082	     -1.33704614	      0.94077822	     -0.77693149	     11.98034127	      1.03823449	     -5.94355828	    -42.22635151	      8.96015052	      3.51706261	      0.83636116	     -0.69949567	     -9.34433632	    -23.28513155	     26.94697719	    -14.45227105	    -14.98300020	      2.67056248	    -11.26507780
      0.16000000	      3.60307364	     -2.54964307	      7.42622427	     -1.33507847	      0.94077113	     -0.77733516	     13.23495630	      1.25579972	     -5.34865245	    -43.78164588	      8.48835479	      3.75496245	      0.68898706	     -0.83927883	     -9.64911071	    -23.11329209	     27.08937827	    -14.00509577	    -15.15433700	      2.83027873	    -11.54673518
      0.17000000	      3.55067653	     -2.70761006	      7.32210368	     -1.33289458	      0.94088105	     -0.77767867	     14.40546430	      1.53574873	     -4.82827432	    -45.04527376	      8.13836796	      3.90858727	      0.50299828	     -1.02470876	     -9.98979304	    -22.91309355	     27.20850583	    -13.49695220	    -15.32679763	      3.02215903	    -11.78041701
      0.18000000	      3.46694386	     -2.90479246	      7.27315676	     -1.33046049	      0.94098399	     -0.77807673	     15.53781424	      1.83035245	     -4.50009573	    -46.01359117	      7.92757617	      4.09864657	      0.34367130	     -1.26565704	    -10.36049384	    -22.70076407	     27.41067253	    -12.71381075	    -15.42166804	      3.26629435	    -12.04421561
